<svg width="20" height="20" viewBox="0 0 20 20" fill="none" xmlns="http://www.w3.org/2000/svg">
<g clip-path="url(#clip0_2_114)">
<path fill-rule="evenodd" clip-rule="evenodd" d="M9.44001 0.672311C8.76393 0.731551 8.34941 0.792231 7.88281 0.900191C5.60789 1.42659 3.59129 2.81123 2.27593 4.75001C1.21065 6.32017 0.660553 8.10801 0.660553 10C0.660553 11.969 1.25681 13.8258 2.40745 15.44C3.71753 17.2779 5.70579 18.6027 7.91001 19.1066C9.41089 19.4496 11.0524 19.4106 12.52 18.9971C14.7279 18.375 16.609 16.982 17.8637 15.04C18.2024 14.5158 18.4457 14.0384 18.6996 13.4C19.3759 11.6995 19.5221 9.72791 19.1066 7.91001C18.637 5.85579 17.459 3.99209 15.8 2.67903C14.4019 1.57237 12.7721 0.906191 10.98 0.708811C10.7061 0.678631 9.65267 0.653671 9.44001 0.672311ZM9.84391 5.30135C9.55195 5.35883 9.31075 5.61595 9.26095 5.92277C9.23489 6.08345 9.23307 10.2565 9.25901 10.4358C9.29485 10.6837 9.44759 10.892 9.67589 11.0044C9.79829 11.0647 9.82475 11.07 10 11.07C10.1753 11.07 10.2017 11.0647 10.3241 11.0044C10.5524 10.892 10.7052 10.6837 10.741 10.4358C10.767 10.2565 10.7651 6.08345 10.7391 5.92277C10.6879 5.60733 10.4486 5.35853 10.1401 5.30003C10.0197 5.27719 9.96539 5.27743 9.84391 5.30135ZM9.85957 12.5597C9.60487 12.5921 9.38815 12.7085 9.19695 12.9156C8.95553 13.1772 8.86553 13.5364 8.95081 13.8982C9.01325 14.1631 9.21303 14.4278 9.46143 14.5747C9.59269 14.6523 9.84373 14.72 10 14.72C10.1563 14.72 10.4073 14.6523 10.5386 14.5747C10.787 14.4278 10.9868 14.1631 11.0492 13.8982C11.1345 13.5364 11.0445 13.1772 10.8031 12.9156C10.5499 12.6414 10.2141 12.5147 9.85957 12.5597Z" fill="white"/>
</g>
<defs>
<clipPath id="clip0_2_114">
<rect width="20" height="20" fill="white"/>
</clipPath>
</defs>
</svg>
